<svg xmlns="http://www.w3.org/2000/svg" width="10.71" height="10.689" viewBox="0 0 10.71 10.689">
  <g id="Group_45614" data-name="Group 45614" transform="translate(0.15 0.15)">
    <g id="Group_45615" data-name="Group 45615">
      <path id="Path_32334" data-name="Path 32334" d="M7.4,0h.529A.387.387,0,0,0,8,.02a2.742,2.742,0,0,1,2.31,1.974c.043.158.069.321.1.482V3a.279.279,0,0,0-.019.056,2.688,2.688,0,0,1-.8,1.633Q7.148,7.136,4.7,9.575a2.681,2.681,0,0,1-2.274.795A2.737,2.737,0,0,1,.1,8.4C.06,8.238.034,8.075,0,7.914V7.386a.3.3,0,0,0,.019-.057,2.7,2.7,0,0,1,.8-1.64L5.7.821A2.728,2.728,0,0,1,6.956.091C7.1.053,7.252.03,7.4,0M6.352,6.886,3.509,4.052s0,0-.007,0c-.749.749-1.508,1.488-2.244,2.25a1.869,1.869,0,0,0-.5,1.647,2,2,0,0,0,1.953,1.7,1.98,1.98,0,0,0,1.477-.608Q5.24,8,6.294,6.947c.024-.024.046-.048.058-.061m.543-.545a.087.087,0,0,0,.018-.013c.747-.746,1.507-1.48,2.236-2.243A1.871,1.871,0,0,0,9.6,2.223a2.008,2.008,0,0,0-3.38-.883c-.707.7-1.409,1.4-2.113,2.108-.021.021-.041.044-.057.061l2.84,2.834" fill="#7166e5" stroke="#7166e5" stroke-width="0.3"/>
      <path id="Path_32339" data-name="Path 32339" d="M9.244.425l-2.5,1.016L4.9,3.322l.885,1.5L8,6.641,10.987,3.23V2.449l-.415-.891-.456-.541Z" transform="translate(-0.827 -0.111)" fill="#7166e5"/>
    </g>
  </g>
</svg>
