<?xml version="1.0" encoding="UTF-8"?>
<!DOCTYPE svg PUBLIC "-//W3C//DTD SVG 1.1//EN" "http://www.w3.org/Graphics/SVG/1.1/DTD/svg11.dtd">
<svg xmlns="http://www.w3.org/2000/svg" version="1.1" width="536px" height="526px" style="shape-rendering:geometricPrecision; text-rendering:geometricPrecision; image-rendering:optimizeQuality; fill-rule:evenodd; clip-rule:evenodd" xmlns:xlink="http://www.w3.org/1999/xlink">
<g><path style="opacity:1" fill="#f5f7f8" d="M -0.5,-0.5 C 177.833,-0.5 356.167,-0.5 534.5,-0.5C 534.5,174.5 534.5,349.5 534.5,524.5C 356.167,524.5 177.833,524.5 -0.5,524.5C -0.5,349.5 -0.5,174.5 -0.5,-0.5 Z"/></g>
<g><path style="opacity:1" fill="#468dca" d="M 260.5,6.5 C 302.606,4.10871 323.939,23.942 324.5,66C 324.403,75.8544 323.903,85.6877 323,95.5C 320.764,106.736 314.431,114.736 304,119.5C 302.338,124.445 302.171,129.445 303.5,134.5C 321.107,132.422 337.44,136.088 352.5,145.5C 379.48,176.981 406.647,208.314 434,239.5C 437.997,243.487 440.997,248.154 443,253.5C 445.485,268.712 439.318,278.212 424.5,282C 420.833,282.667 417.167,282.667 413.5,282C 388.09,259.593 363.59,236.093 340,211.5C 335.929,226.59 332.929,241.923 331,257.5C 329.565,270.847 328.065,284.18 326.5,297.5C 329.697,324.262 333.697,350.929 338.5,377.5C 336.845,385.452 335.512,393.452 334.5,401.5C 336.887,427.809 338.887,454.142 340.5,480.5C 347.61,481.861 354.61,483.694 361.5,486C 372.812,494.869 373.478,504.536 363.5,515C 345.339,518.339 327.005,519.339 308.5,518C 305.302,517.152 302.469,515.652 300,513.5C 293.645,493.972 291.312,473.972 293,453.5C 297,449.5 301,449.5 305,453.5C 306.853,470.138 309.353,486.638 312.5,503C 326.449,504.409 340.449,504.909 354.5,504.5C 354.822,502.278 354.155,500.444 352.5,499C 343.029,497.848 334.863,494.015 328,487.5C 323.002,457.357 319.836,427.024 318.5,396.5C 312.5,396.5 306.5,396.5 300.5,396.5C 301.479,407.15 301.646,417.817 301,428.5C 298.083,430.393 294.916,430.893 291.5,430C 288.258,414.456 284.758,398.956 281,383.5C 278.993,380.664 276.826,377.997 274.5,375.5C 271.505,379.338 268.671,383.338 266,387.5C 259.986,425.958 255.653,464.625 253,503.5C 252.209,507.719 250.375,511.386 247.5,514.5C 242.051,516.521 236.384,517.688 230.5,518C 215.676,519.246 201.009,518.413 186.5,515.5C 174.084,501.605 176.418,490.772 193.5,483C 198.384,481.426 203.384,480.593 208.5,480.5C 210.334,454.326 212.334,428.159 214.5,402C 213.87,393.721 212.537,385.554 210.5,377.5C 215.343,350.454 219.343,323.287 222.5,296C 220.037,267.417 215.537,239.25 209,211.5C 186.5,234 164,256.5 141.5,279C 121.706,286.769 109.373,280.269 104.5,259.5C 105.493,254.513 107.326,249.846 110,245.5C 121.019,233.315 131.853,220.982 142.5,208.5C 149.902,205.114 153.735,207.448 154,215.5C 144.133,229.707 133.133,243.04 121,255.5C 119.5,264.667 123.333,268.5 132.5,267C 157.5,242 182.5,217 207.5,192C 214.73,188.753 220.23,190.586 224,197.5C 229.057,230.397 233.223,263.397 236.5,296.5C 261.833,296.5 287.167,296.5 312.5,296.5C 316.079,262.712 320.579,229.045 326,195.5C 330.338,190.549 335.505,189.382 341.5,192C 366.5,217 391.5,242 416.5,267C 425.614,268.553 429.447,264.72 428,255.5C 398.618,221.906 369.118,188.406 339.5,155C 335.729,152.781 331.729,151.115 327.5,150C 317.506,149.25 307.506,148.584 297.5,148C 292.045,145.655 288.545,141.489 287,135.5C 286.501,130.511 286.334,125.511 286.5,120.5C 278.493,120.334 270.493,120.5 262.5,121C 264.16,130.52 261.827,139.02 255.5,146.5C 243.503,147.725 231.503,148.892 219.5,150C 216.167,151.667 212.833,153.333 209.5,155C 197.84,168.326 185.84,181.326 173.5,194C 165.839,194.67 162.673,191.17 164,183.5C 174.143,170.722 184.643,158.222 195.5,146C 210.933,135.393 227.933,131.559 246.5,134.5C 246.825,129.401 246.325,124.401 245,119.5C 235.452,114.951 229.118,107.618 226,97.5C 224.418,82.5464 224.085,67.5464 225,52.5C 228.086,30.2655 239.92,14.9322 260.5,6.5 Z"/></g>
<g><path style="opacity:1" fill="#f5f7f8" d="M 263.5,21.5 C 283.283,18.6409 297.783,25.9742 307,43.5C 309,60.8333 309,78.1667 307,95.5C 304.5,99.3333 301.333,102.5 297.5,105C 281.841,106.934 266.174,106.934 250.5,105C 246.866,102.575 244.032,99.4083 242,95.5C 240.033,78.1762 240.033,60.8429 242,43.5C 247.359,34.3091 254.525,26.9758 263.5,21.5 Z"/></g>
<g><path style="opacity:1" fill="#498ecb" d="M 270.5,162.5 C 275.42,161.881 279.253,163.547 282,167.5C 282.667,176.167 282.667,184.833 282,193.5C 281.29,197.882 278.623,200.215 274,200.5C 270.419,199.886 268.085,197.886 267,194.5C 266.333,185.5 266.333,176.5 267,167.5C 268.176,165.804 269.343,164.138 270.5,162.5 Z"/></g>
<g><path style="opacity:1" fill="#468dca" d="M 305.5,196.5 C 315.305,195.46 318.472,199.46 315,208.5C 308.272,214.617 300.439,218.117 291.5,219C 289.03,216.237 288.196,213.07 289,209.5C 294.297,204.785 299.797,200.452 305.5,196.5 Z"/></g>
<g><path style="opacity:1" fill="#488ecb" d="M 234.5,196.5 C 243.587,197.544 251.587,201.044 258.5,207C 262.102,213.248 260.602,217.748 254,220.5C 246.797,217.276 240.13,213.276 234,208.5C 231.862,204.356 232.029,200.356 234.5,196.5 Z"/></g>
<g><path style="opacity:1" fill="#468dcb" d="M 297.5,228.5 C 307.305,227.46 310.472,231.46 307,240.5C 300.272,246.617 292.439,250.117 283.5,251C 281.03,248.237 280.196,245.07 281,241.5C 286.687,237.303 292.187,232.97 297.5,228.5 Z"/></g>
<g><path style="opacity:1" fill="#488ecb" d="M 242.5,228.5 C 251.516,230.009 259.516,233.675 266.5,239.5C 270.044,245.556 268.544,249.889 262,252.5C 254.797,249.276 248.13,245.276 242,240.5C 239.862,236.356 240.029,232.356 242.5,228.5 Z"/></g>
<g><path style="opacity:1" fill="#488dcb" d="M 175.5,280.5 C 178.941,280.301 182.274,280.801 185.5,282C 192.763,288.424 199.096,295.591 204.5,303.5C 199.096,311.409 192.763,318.576 185.5,325C 172.508,326.881 169.842,322.714 177.5,312.5C 164.187,311.134 150.854,309.968 137.5,309C 133.5,305.333 133.5,301.667 137.5,298C 150.795,296.668 164.128,295.668 177.5,295C 171.735,290.796 171.069,285.963 175.5,280.5 Z"/></g>
<g><path style="opacity:1" fill="#478dcb" d="M 363.5,280.5 C 375.354,279.488 378.354,283.988 372.5,294C 385.427,295.993 398.427,297.327 411.5,298C 415.5,301.667 415.5,305.333 411.5,309C 398.155,310.034 384.822,311.201 371.5,312.5C 379.488,323.003 376.821,327.17 363.5,325C 356.579,318.303 350.245,311.136 344.5,303.5C 350.603,295.618 356.936,287.952 363.5,280.5 Z"/></g>
<g><path style="opacity:1" fill="#f0f2f3" d="M 236.5,310.5 C 261.833,310.5 287.167,310.5 312.5,310.5C 317.135,333.646 320.469,356.979 322.5,380.5C 313.827,380.666 305.16,380.5 296.5,380C 291.709,372.919 287.042,365.752 282.5,358.5C 276.414,353.036 270.581,353.37 265,359.5C 261.963,367.084 257.796,373.917 252.5,380C 243.84,380.5 235.173,380.666 226.5,380.5C 228.407,356.965 231.74,333.632 236.5,310.5 Z"/></g>
<g><path style="opacity:1" fill="#e6e9eb" d="M 230.5,396.5 C 236.5,396.5 242.5,396.5 248.5,396.5C 245.857,431.953 242.19,467.286 237.5,502.5C 223.229,504.209 208.895,504.876 194.5,504.5C 194.178,502.278 194.845,500.444 196.5,499C 202.736,497.255 208.736,494.922 214.5,492C 217.337,490.328 219.67,488.161 221.5,485.5C 225.869,455.962 228.869,426.295 230.5,396.5 Z"/></g>
</svg>
