<svg xmlns="http://www.w3.org/2000/svg" width="15.384" height="10.256" viewBox="0 0 15.384 10.256">
  <path id="Union_14" data-name="Union 14" d="M1.922,10.256A1.925,1.925,0,0,1,0,8.333V1.922A1.925,1.925,0,0,1,1.922,0H8.974A1.924,1.924,0,0,1,10.9,1.922V3.883L14.37,1.4a.641.641,0,0,1,1.014.521v6.41a.641.641,0,0,1-1.014.522L10.9,6.373V8.333a1.925,1.925,0,0,1-1.922,1.924Zm-.64-8.334v6.41a.641.641,0,0,0,.64.642H8.974a.641.641,0,0,0,.64-.642V1.922a.641.641,0,0,0-.64-.64H1.922A.641.641,0,0,0,1.282,1.922ZM11.359,5.128,14.1,7.088V3.168Z" fill="#333"/>
</svg>
